# File created by Blade
# Date/Time:  Thu Sep 25 18:58:07 2014
# Frame Rate: 120.000 fps
#------------------------------------------------------
:FULLY-SPECIFIED
:DEGREES
2928
root 1.406766 32.949909 1.197863 6.065626 -0.031459 -0.472629
Spine -8.844508 3.903684 -2.030113
Head -7.857958 -7.568807 13.001346
LeftShoulder -13.471326 11.651182 29.429129
LeftArm 19.236250 -27.608583 -26.343677
LeftForeArm 14.854074 -0.000000 13.684985
LeftHand -27.997608 0.000000 -7.812905
LeftHandThumb1 -26.253704 0.000000 33.147579
RightShoulder -22.150576 18.711056 -40.317175
RightArm -1.918850 7.894034 27.697239
RightForeArm -34.506346 -0.000000 14.814873
RightHand -12.717594 -0.000000 13.380394
RightHandThumb1 -24.326973 -0.000000 -32.862282
LeftUpLeg -0.808610 10.668301 4.515842
LeftLeg -1.924242 -0.000000 0.000000
LeftFoot -5.941275 -3.165519 -18.394694
LeftToeBase 8.975469 -0.000000 -0.000000
RightUpLeg -1.451419 -10.015134 -6.072298
RightLeg 0.623179 -0.000000 -0.000000
RightFoot -3.788802 -0.748374 3.791206
RightToeBase -2.958810 -0.000000 0.000000
2929
root 1.409404 32.949916 1.188077 6.114372 0.074669 -0.478022
Spine -8.796560 3.873866 -2.018437
Head -8.003101 -7.672301 13.034743
LeftShoulder -13.432861 11.567687 29.503024
LeftArm 19.160930 -27.162702 -26.028192
LeftForeArm 15.571679 -0.000000 13.551488
LeftHand -27.963869 -0.000000 -8.102232
LeftHandThumb1 -26.253704 0.000000 33.147579
RightShoulder -22.224805 18.565809 -40.170687
RightArm -1.747579 7.890563 27.610022
RightForeArm -34.972345 -0.000000 14.621912
RightHand -12.723417 -0.000000 13.783247
RightHandThumb1 -24.326973 -0.000000 -32.862282
LeftUpLeg -0.882872 10.645300 4.511746
LeftLeg -1.950839 -0.000000 0.000000
LeftFoot -5.898824 -3.237927 -18.432015
LeftToeBase 9.050546 -0.000000 -0.000000
RightUpLeg -1.486849 -10.080247 -6.054830
RightLeg 0.604277 -0.000000 -0.000000
RightFoot -3.776510 -0.778065 3.830979
RightToeBase -2.891932 -0.000000 0.000000
2930
root 1.412315 32.949332 1.177365 6.182552 0.188915 -0.480127
Spine -8.776496 3.838234 -2.010096
Head -8.157821 -7.766359 13.044340
LeftShoulder -13.391739 11.460290 29.614713
LeftArm 19.092772 -26.977274 -25.909514
LeftForeArm 16.626991 -0.000000 13.473769
LeftHand -27.687495 -0.000000 -8.549256
LeftHandThumb1 -26.253704 0.000000 33.147579
RightShoulder -22.207875 18.575150 -40.084569
RightArm -1.905847 7.887807 27.487594
RightForeArm -35.223517 -0.000000 14.609789
RightHand -12.839909 -0.000000 14.319874
RightHandThumb1 -24.326973 -0.000000 -32.862282
LeftUpLeg -0.977402 10.611413 4.501064
LeftLeg -1.981990 -0.000000 0.000000
LeftFoot -5.851448 -3.305770 -18.433974
LeftToeBase 9.013048 -0.000000 -0.000000
RightUpLeg -1.542279 -10.146133 -6.037415
RightLeg 0.588126 -0.000000 -0.000000
RightFoot -3.773505 -0.824916 3.838183
RightToeBase -2.860809 -0.000000 0.000000
2931
root 1.409421 32.948802 1.168598 6.242524 0.295863 -0.522880
Spine -8.733540 3.819611 -1.966660
Head -8.325954 -7.817642 13.125616
LeftShoulder -13.351836 11.323489 29.685073
LeftArm 18.997611 -26.604191 -25.682542
LeftForeArm 17.127354 -0.000000 13.388720
LeftHand -27.757984 -0.000000 -8.633838
LeftHandThumb1 -26.253704 0.000000 33.147579
RightShoulder -22.226715 18.617575 -40.008805
RightArm -2.083737 7.875206 27.386405
RightForeArm -35.514230 -0.000000 14.526455
RightHand -12.777783 -0.000000 14.627172
RightHandThumb1 -24.326973 -0.000000 -32.862282
LeftUpLeg -1.078028 10.726475 4.537377
LeftLeg -1.979630 -0.000000 0.000000
LeftFoot -5.781115 -3.500735 -18.424299
LeftToeBase 9.015017 -0.000000 -0.000000
RightUpLeg -1.586742 -10.212188 -5.971654
RightLeg 0.565800 -0.000000 -0.000000
RightFoot -3.748161 -0.852222 3.820571
RightToeBase -2.885410 -0.000000 0.000000
2932
root 1.411147 32.948987 1.159242 6.302339 0.390817 -0.525370
Spine -8.691247 3.813514 -1.972070
Head -8.512805 -7.881877 13.179767
LeftShoulder -13.314787 11.276308 29.736568
LeftArm 18.909053 -26.450374 -25.564792
LeftForeArm 17.720906 -0.000000 13.418968
LeftHand -27.816421 -0.000000 -8.907996
LeftHandThumb1 -26.253704 0.000000 33.147579
RightShoulder -22.258162 18.642339 -39.919346
RightArm -2.270980 7.920267 27.305612
RightForeArm -35.808242 -0.000000 14.472908
RightHand -12.765453 -0.000000 15.002969
RightHandThumb1 -24.326973 -0.000000 -32.862282
LeftUpLeg -1.159642 10.726495 4.527760
LeftLeg -2.009111 -0.000000 0.000000
LeftFoot -5.726130 -3.574268 -18.410085
LeftToeBase 9.042124 -0.000000 -0.000000
RightUpLeg -1.627104 -10.260440 -5.953942
RightLeg 0.530396 -0.000000 -0.000000
RightFoot -3.730109 -0.893432 3.845106
RightToeBase -2.875252 -0.000000 0.000000
2933
root 1.413880 32.949938 1.150384 6.367188 0.496098 -0.517046
Spine -8.660493 3.809662 -1.980796
Head -8.680301 -7.962604 13.205882
LeftShoulder -13.259270 11.237354 29.743608
LeftArm 18.847787 -26.195753 -25.377974
LeftForeArm 17.931031 -0.000000 13.303930
LeftHand -27.710670 -0.000000 -8.843724
LeftHandThumb1 -26.253704 0.000000 33.147579
RightShoulder -22.285296 18.595555 -39.770947
RightArm -2.391540 8.055465 27.205958
RightForeArm -36.025128 -0.000000 14.328624
RightHand -12.836218 -0.000000 15.210276
RightHandThumb1 -24.326973 -0.000000 -32.862282
LeftUpLeg -1.246381 10.747386 4.504945
LeftLeg -2.040523 -0.000000 0.000000
LeftFoot -5.646034 -3.678317 -18.402865
LeftToeBase 9.054174 -0.000000 -0.000000
RightUpLeg -1.664072 -10.308452 -5.946977
RightLeg 0.483724 -0.000000 -0.000000
RightFoot -3.687921 -0.955975 3.863067
RightToeBase -2.892641 -0.000000 0.000000
2934
root 1.417474 32.950004 1.138717 6.454582 0.620042 -0.511365
Spine -8.652494 3.787902 -1.980444
Head -8.863084 -8.054297 13.225375
LeftShoulder -13.209047 11.226277 29.776579
LeftArm 18.784109 -26.000833 -25.287033
LeftForeArm 18.251690 -0.000000 13.248727
LeftHand -27.780526 -0.000000 -9.040525
LeftHandThumb1 -26.253704 0.000000 33.147579
RightShoulder -22.250453 18.634725 -39.698211
RightArm -2.721954 8.080362 27.128913
RightForeArm -36.181226 -0.000000 14.289757
RightHand -12.928437 -0.000000 15.512900
RightHandThumb1 -24.326973 -0.000000 -32.862282
LeftUpLeg -1.365513 10.714400 4.477053
LeftLeg -2.068885 -0.000000 0.000000
LeftFoot -5.594442 -3.728975 -18.410624
LeftToeBase 9.088563 -0.000000 -0.000000
RightUpLeg -1.733314 -10.374978 -5.935093
RightLeg 0.454931 -0.000000 -0.000000
RightFoot -3.678411 -0.997373 3.913708
RightToeBase -2.879110 -0.000000 0.000000
2935
root 1.420466 32.950106 1.130887 6.507124 0.731121 -0.505040
Spine -8.603465 3.746610 -1.973275
Head -9.047612 -8.078069 13.249536
LeftShoulder -13.197517 11.250786 29.809661
LeftArm 18.710550 -25.826222 -25.232493
LeftForeArm 18.589143 -0.000000 13.234888
LeftHand -27.680719 0.000000 -9.435973
LeftHandThumb1 -26.253704 0.000000 33.147579
RightShoulder -22.241925 18.672383 -39.597007
RightArm -2.959617 8.085929 27.063786
RightForeArm -36.473338 0.000000 14.188534
RightHand -12.996581 -0.000000 15.818464
RightHandThumb1 -24.326973 -0.000000 -32.862282
LeftUpLeg -1.429702 10.726670 4.458048
LeftLeg -2.123516 -0.000000 0.000000
LeftFoot -5.512240 -3.822504 -18.416804
LeftToeBase 9.064352 -0.000000 -0.000000
RightUpLeg -1.755891 -10.426589 -5.928421
RightLeg 0.409765 -0.000000 -0.000000
RightFoot -3.660700 -1.063558 3.936364
RightToeBase -2.820904 -0.000000 0.000000
2936
root 1.423882 32.949973 1.120312 6.588134 0.835717 -0.502767
Spine -8.583003 3.711021 -1.961284
Head -9.252998 -8.108631 13.291461
LeftShoulder -13.181398 11.281811 29.812173
LeftArm 18.652028 -25.561948 -25.136207
LeftForeArm 18.773616 -0.000000 13.153181
LeftHand -27.754934 -0.000000 -9.505003
LeftHandThumb1 -26.253704 0.000000 33.147579
RightShoulder -22.205740 18.752134 -39.534901
RightArm -3.344349 8.111675 26.997719
RightForeArm -36.672537 -0.000000 14.250225
RightHand -13.167333 -0.000000 16.226841
RightHandThumb1 -24.326973 -0.000000 -32.862282
LeftUpLeg -1.533582 10.737048 4.435879
LeftLeg -2.156356 -0.000000 0.000000
LeftFoot -5.451100 -3.924209 -18.404536
LeftToeBase 9.093889 -0.000000 -0.000000
RightUpLeg -1.822887 -10.474139 -5.913613
RightLeg 0.385979 -0.000000 -0.000000
RightFoot -3.643246 -1.126060 3.951672
RightToeBase -2.825309 -0.000000 0.000000
2937
root 1.428915 32.950403 1.109305 6.674691 0.936570 -0.490355
Spine -8.566227 3.649390 -1.945893
Head -9.451447 -8.105870 13.304106
LeftShoulder -13.200133 11.270017 29.810971
LeftArm 18.576838 -25.232586 -25.045261
LeftForeArm 19.018850 -0.000000 13.061339
LeftHand -27.745085 0.000000 -9.796802
LeftHandThumb1 -26.253704 0.000000 33.147579
RightShoulder -22.165246 18.790735 -39.402664
RightArm -3.572184 8.116388 26.916788
RightForeArm -36.889383 -0.000000 14.090000
RightHand -13.109504 0.000000 16.400886
RightHandThumb1 -24.326973 -0.000000 -32.862282
LeftUpLeg -1.644578 10.746948 4.398195
LeftLeg -2.193921 -0.000000 0.000000
LeftFoot -5.379108 -3.990707 -18.378281
LeftToeBase 9.116007 -0.000000 -0.000000
RightUpLeg -1.888076 -10.509119 -5.909963
RightLeg 0.343382 -0.000000 -0.000000
RightFoot -3.622520 -1.193990 3.999457
RightToeBase -2.798642 -0.000000 0.000000
2938
root 1.434946 32.949979 1.097356 6.760947 1.034066 -0.467850
Spine -8.573446 3.627813 -1.964980
Head -9.612678 -8.156263 13.360077
LeftShoulder -13.140486 11.253437 29.876187
LeftArm 18.501776 -24.919969 -25.017216
LeftForeArm 19.335227 0.000000 12.953177
LeftHand -27.789777 -0.000000 -10.031186
LeftHandThumb1 -26.253704 0.000000 33.147579
RightShoulder -22.124536 18.717832 -39.235976
RightArm -3.796078 8.139217 26.865274
RightForeArm -36.794182 -0.000000 13.997237
RightHand -13.162680 -0.000000 16.526414
RightHandThumb1 -24.326973 -0.000000 -32.862282
LeftUpLeg -1.711386 10.555917 4.368287
LeftLeg -2.312555 -0.000000 0.000000
LeftFoot -5.309016 -3.920608 -18.467636
LeftToeBase 9.148310 -0.000000 -0.000000
RightUpLeg -1.964007 -10.541786 -5.920064
RightLeg 0.323544 -0.000000 -0.000000
RightFoot -3.622237 -1.266039 4.012664
RightToeBase -2.781329 -0.000000 0.000000
